# xmcd
#
# Track frame offsets:
#	150
#	109207
#	175282
#	237748
#	302030
#
# Disc length: 4731 seconds
#
# Revision: 0
# Processed by: cddbd v1.5.2PL0 Copyright (c) Steve Scherf et al.
# Submitted via: audiograbber 1.83.01
#
DISCID=41127905
DTITLE=Mastermix - Mastermix Issue 305 - Disc 1
DYEAR=2011
DGENRE=Pop
TTITLE0=Best Of 2011: Pop
TTITLE1=80s Guilty Pleasures Mix
TTITLE2=Uplifting Anthems
TTITLE3=Soul Brothers
TTITLE4=Modern Country
EXTD=
EXTT0=
EXTT1=
EXTT2=
EXTT3=
EXTT4=
PLAYORDER=
